<svg width="16" height="16" viewBox="0 0 16 16" fill="none" xmlns="http://www.w3.org/2000/svg">
<path d="M5.49988 13.9999C6.05216 13.9999 6.49988 13.5522 6.49988 12.9999C6.49988 12.4477 6.05216 11.9999 5.49988 11.9999C4.94759 11.9999 4.49988 12.4477 4.49988 12.9999C4.49988 13.5522 4.94759 13.9999 5.49988 13.9999Z" fill="#4299E1"/>
<path d="M12.4999 13.9999C13.0522 13.9999 13.4999 13.5522 13.4999 12.9999C13.4999 12.4477 13.0522 11.9999 12.4999 11.9999C11.9477 11.9999 11.4999 12.4477 11.4999 12.9999C11.4999 13.5522 11.9477 13.9999 12.4999 13.9999Z" fill="#4299E1"/>
<path d="M14.2749 3.77454C14.2047 3.68862 14.1162 3.61942 14.0159 3.57196C13.9155 3.5245 13.8059 3.49998 13.6949 3.50017H4.184L3.99244 2.41329C3.97201 2.29752 3.91145 2.19265 3.82138 2.1171C3.73131 2.04154 3.6175 2.00014 3.49994 2.00017H1.49994C1.36733 2.00017 1.24015 2.05285 1.14639 2.14661C1.05262 2.24038 0.999939 2.36756 0.999939 2.50017C0.999939 2.63278 1.05262 2.75995 1.14639 2.85372C1.24015 2.94749 1.36733 3.00017 1.49994 3.00017H3.08056L4.50744 11.087C4.52786 11.2028 4.58843 11.3077 4.6785 11.3832C4.76857 11.4588 4.88238 11.5002 4.99994 11.5002H12.9999C13.1325 11.5002 13.2597 11.4475 13.3535 11.3537C13.4473 11.26 13.4999 11.1328 13.4999 11.0002C13.4999 10.8676 13.4473 10.7404 13.3535 10.6466C13.2597 10.5528 13.1325 10.5002 12.9999 10.5002H5.41931L5.24306 9.50017H12.7949C12.9683 9.49995 13.1363 9.43982 13.2705 9.32997C13.4047 9.22013 13.4968 9.0673 13.5312 8.89735L14.4312 4.39735C14.4529 4.28845 14.4501 4.17609 14.4231 4.06838C14.3961 3.96068 14.3455 3.86031 14.2749 3.77454V3.77454Z" fill="#4299E1"/>
</svg>
